<svg width="136" height="70" viewBox="0 0 136 70" fill="none" xmlns="http://www.w3.org/2000/svg">
<circle cx="31.5" cy="38.5" r="31.5" fill="url(#paint0_linear)"/>
<mask id="mask0" mask-type="alpha" maskUnits="userSpaceOnUse" x="0" y="7" width="63" height="63">
<circle cx="31.5" cy="38.5" r="31" fill="black" stroke="#202020"/>
</mask>
<g mask="url(#mask0)">
<g opacity="0.2">
<circle cx="-28" cy="-41" r="107.5" stroke="#F4F4F4" stroke-width="15"/>
<circle cx="-28" cy="-41" r="107.5" stroke="url(#paint1_radial)" stroke-width="15"/>
</g>
</g>
<path d="M37.688 57H36.752L32.396 44.4H33.62L37.22 55.056L40.73 44.4H41.648L45.176 55.056L48.758 44.4H50L45.626 57H44.69L41.198 46.47L37.688 57ZM55.2532 47.478C56.8612 47.478 58.1032 48.114 58.9792 49.386V47.64H60.0952V57H58.9792V55.254C58.5592 55.854 58.0252 56.322 57.3772 56.658C56.7292 56.994 56.0212 57.162 55.2532 57.162C53.9332 57.162 52.8292 56.7 51.9412 55.776C51.0652 54.864 50.6272 53.712 50.6272 52.32C50.6272 50.928 51.0652 49.776 51.9412 48.864C52.8292 47.94 53.9332 47.478 55.2532 47.478ZM57.9172 49.674C57.2332 48.954 56.3812 48.594 55.3612 48.594C54.3412 48.594 53.4892 48.954 52.8052 49.674C52.1212 50.382 51.7792 51.264 51.7792 52.32C51.7792 53.376 52.1212 54.264 52.8052 54.984C53.4892 55.692 54.3412 56.046 55.3612 56.046C56.3812 56.046 57.2332 55.692 57.9172 54.984C58.6012 54.264 58.9432 53.376 58.9432 52.32C58.9432 51.264 58.6012 50.382 57.9172 49.674ZM64.4913 51.636V57H63.3753V47.64H64.4913V49.476C65.2113 48.144 66.4113 47.478 68.0913 47.478H68.3613V48.702C68.2293 48.654 68.0493 48.63 67.8213 48.63C66.8853 48.63 66.0933 48.918 65.4453 49.494C64.8093 50.07 64.4913 50.784 64.4913 51.636ZM79.0801 52.662H70.6921C70.7641 53.646 71.1541 54.474 71.8621 55.146C72.5821 55.794 73.4581 56.118 74.4901 56.118C75.1381 56.118 75.7321 55.98 76.2721 55.704C76.8121 55.416 77.2501 55.026 77.5861 54.534L78.6661 54.894C78.2461 55.602 77.6701 56.16 76.9381 56.568C76.2061 56.964 75.3901 57.162 74.4901 57.162C73.0861 57.162 71.9101 56.7 70.9621 55.776C70.0261 54.864 69.5581 53.712 69.5581 52.32C69.5581 50.928 70.0141 49.776 70.9261 48.864C71.8501 47.94 72.9841 47.478 74.3281 47.478C75.6721 47.478 76.8061 47.94 77.7301 48.864C78.6421 49.776 79.0981 50.928 79.0981 52.32C79.0981 52.5 79.0921 52.614 79.0801 52.662ZM70.7101 51.726H77.9461C77.8141 50.79 77.4061 50.022 76.7221 49.422C76.0501 48.822 75.2461 48.522 74.3101 48.522C73.3741 48.522 72.5701 48.822 71.8981 49.422C71.2381 50.01 70.8421 50.778 70.7101 51.726ZM81.6734 57V43.5H82.7894V49.458C83.5334 48.138 84.7334 47.478 86.3894 47.478C87.4694 47.478 88.3694 47.838 89.0894 48.558C89.8094 49.278 90.1694 50.178 90.1694 51.258V57H89.0534V51.51C89.0534 50.67 88.7714 49.968 88.2074 49.404C87.6434 48.84 86.9414 48.558 86.1014 48.558C85.1534 48.558 84.3674 48.846 83.7434 49.422C83.1074 49.998 82.7894 50.712 82.7894 51.564V57H81.6734ZM94.2169 55.776C93.2929 54.852 92.8309 53.7 92.8309 52.32C92.8309 50.94 93.2929 49.788 94.2169 48.864C95.1409 47.94 96.2929 47.478 97.6729 47.478C99.0529 47.478 100.205 47.94 101.129 48.864C102.053 49.788 102.515 50.94 102.515 52.32C102.515 53.7 102.053 54.852 101.129 55.776C100.205 56.7 99.0529 57.162 97.6729 57.162C96.2929 57.162 95.1409 56.7 94.2169 55.776ZM95.0269 49.656C94.3309 50.352 93.9829 51.24 93.9829 52.32C93.9829 53.4 94.3309 54.288 95.0269 54.984C95.7349 55.692 96.6169 56.046 97.6729 56.046C98.7169 56.046 99.5929 55.692 100.301 54.984C101.009 54.276 101.363 53.388 101.363 52.32C101.363 51.252 101.009 50.364 100.301 49.656C99.5929 48.948 98.7169 48.594 97.6729 48.594C96.6169 48.594 95.7349 48.948 95.0269 49.656ZM105.156 53.382V47.64H106.272V53.112C106.272 53.94 106.554 54.648 107.118 55.236C107.682 55.8 108.39 56.082 109.242 56.082C110.19 56.082 110.976 55.794 111.6 55.218C112.248 54.642 112.572 53.928 112.572 53.076V47.64H113.688V57H112.572V55.182C111.828 56.502 110.622 57.162 108.954 57.162C107.862 57.162 106.956 56.802 106.236 56.082C105.516 55.362 105.156 54.462 105.156 53.382ZM122.99 49.548L121.946 49.764C121.85 49.368 121.598 49.056 121.19 48.828C120.794 48.588 120.308 48.468 119.732 48.468C119.144 48.468 118.652 48.606 118.256 48.882C117.86 49.146 117.662 49.494 117.662 49.926C117.662 50.538 118.028 50.976 118.76 51.24L121.226 52.122C122.546 52.614 123.206 53.412 123.206 54.516C123.206 55.332 122.882 55.98 122.234 56.46C121.61 56.928 120.794 57.162 119.786 57.162C118.85 57.162 118.07 56.958 117.446 56.55C116.822 56.13 116.444 55.572 116.312 54.876L117.374 54.678C117.47 55.122 117.74 55.482 118.184 55.758C118.628 56.022 119.174 56.154 119.822 56.154C120.482 56.154 121.028 56.004 121.46 55.704C121.904 55.404 122.126 55.02 122.126 54.552C122.126 53.892 121.682 53.406 120.794 53.094L118.4 52.23C117.188 51.774 116.582 51.03 116.582 49.998C116.582 49.218 116.882 48.606 117.482 48.162C118.082 47.706 118.862 47.478 119.822 47.478C120.662 47.478 121.364 47.67 121.928 48.054C122.504 48.426 122.858 48.924 122.99 49.548ZM134.898 52.662H126.51C126.582 53.646 126.972 54.474 127.68 55.146C128.4 55.794 129.276 56.118 130.308 56.118C130.956 56.118 131.55 55.98 132.09 55.704C132.63 55.416 133.068 55.026 133.404 54.534L134.484 54.894C134.064 55.602 133.488 56.16 132.756 56.568C132.024 56.964 131.208 57.162 130.308 57.162C128.904 57.162 127.728 56.7 126.78 55.776C125.844 54.864 125.376 53.712 125.376 52.32C125.376 50.928 125.832 49.776 126.744 48.864C127.668 47.94 128.802 47.478 130.146 47.478C131.49 47.478 132.624 47.94 133.548 48.864C134.46 49.776 134.916 50.928 134.916 52.32C134.916 52.5 134.91 52.614 134.898 52.662ZM126.528 51.726H133.764C133.632 50.79 133.224 50.022 132.54 49.422C131.868 48.822 131.064 48.522 130.128 48.522C129.192 48.522 128.388 48.822 127.716 49.422C127.056 50.01 126.66 50.778 126.528 51.726Z" fill="white"/>
<path d="M24.38 28.13C25.7 28.13 26.888 28.454 27.944 29.102C28.988 29.726 29.786 30.584 30.338 31.676L27.998 32.558C27.638 31.898 27.14 31.382 26.504 31.01C25.868 30.638 25.16 30.452 24.38 30.452C23.192 30.452 22.202 30.86 21.41 31.676C20.618 32.492 20.222 33.5 20.222 34.7C20.222 35.912 20.606 36.92 21.374 37.724C22.142 38.528 23.084 38.93 24.2 38.93C25.052 38.93 25.832 38.684 26.54 38.192C27.236 37.712 27.722 37.064 27.998 36.248H24.02V34.052H30.734C30.758 34.412 30.77 34.622 30.77 34.682C30.77 36.53 30.146 38.096 28.898 39.38C27.662 40.64 26.108 41.27 24.236 41.27C22.376 41.27 20.822 40.646 19.574 39.398C18.326 38.126 17.702 36.56 17.702 34.7C17.702 32.816 18.338 31.256 19.61 30.02C20.882 28.76 22.472 28.13 24.38 28.13ZM35.0308 41H32.7808V31.64H35.0308V41ZM33.8968 30.812C33.4888 30.812 33.1468 30.674 32.8708 30.398C32.6068 30.122 32.4748 29.78 32.4748 29.372C32.4748 28.964 32.6068 28.628 32.8708 28.364C33.1468 28.088 33.4888 27.95 33.8968 27.95C34.3048 27.95 34.6468 28.088 34.9228 28.364C35.1988 28.628 35.3368 28.964 35.3368 29.372C35.3368 29.78 35.1988 30.122 34.9228 30.398C34.6588 30.674 34.3168 30.812 33.8968 30.812ZM40.2048 30.776V31.64H42.4368V33.584H40.2048V41H37.9548V33.584H36.5328V31.64H37.9548V30.47C37.9548 29.618 38.2608 28.91 38.8728 28.346C39.5088 27.782 40.2768 27.5 41.1768 27.5H42.4368V29.642H41.3388C41.0148 29.642 40.7448 29.75 40.5288 29.966C40.3128 30.182 40.2048 30.452 40.2048 30.776ZM43.133 33.602V31.64H44.465V29.804H46.715V31.64H49.037V33.602H46.715V37.724C46.715 38.048 46.823 38.318 47.039 38.534C47.255 38.75 47.531 38.858 47.867 38.858H49.037V41H47.651C46.763 41 46.007 40.718 45.383 40.154C44.771 39.59 44.465 38.888 44.465 38.048V33.602H43.133ZM62.1072 28.13C63.4152 28.13 64.5912 28.454 65.6352 29.102C66.6792 29.738 67.4652 30.596 67.9932 31.676L65.6532 32.558C65.3052 31.91 64.8132 31.4 64.1772 31.028C63.5532 30.644 62.8632 30.452 62.1072 30.452C60.9552 30.452 59.9892 30.86 59.2092 31.676C58.4412 32.48 58.0572 33.488 58.0572 34.7C58.0572 35.912 58.4412 36.92 59.2092 37.724C59.9772 38.528 60.9432 38.93 62.1072 38.93C62.8632 38.93 63.5532 38.744 64.1772 38.372C64.8132 38 65.3052 37.49 65.6532 36.842L67.9932 37.724C67.4772 38.804 66.6912 39.668 65.6352 40.316C64.5792 40.952 63.4032 41.27 62.1072 41.27C60.2472 41.27 58.6812 40.646 57.4092 39.398C56.1612 38.126 55.5372 36.56 55.5372 34.7C55.5372 32.828 56.1612 31.268 57.4092 30.02C58.6692 28.76 60.2352 28.13 62.1072 28.13ZM73.949 31.37C75.005 31.37 75.953 31.706 76.793 32.378V31.64H79.025V41H76.793V40.262C75.953 40.934 75.005 41.27 73.949 41.27C72.665 41.27 71.579 40.802 70.691 39.866C69.827 38.918 69.395 37.736 69.395 36.32C69.395 34.904 69.827 33.728 70.691 32.792C71.567 31.844 72.653 31.37 73.949 31.37ZM76.019 34.394C75.539 33.878 74.945 33.62 74.237 33.62C73.517 33.62 72.917 33.878 72.437 34.394C71.957 34.91 71.717 35.552 71.717 36.32C71.717 37.088 71.957 37.73 72.437 38.246C72.917 38.762 73.517 39.02 74.237 39.02C74.945 39.02 75.539 38.762 76.019 38.246C76.511 37.718 76.757 37.076 76.757 36.32C76.757 35.564 76.511 34.922 76.019 34.394ZM83.5443 31.64V32.792C84.1923 31.844 85.2183 31.37 86.6223 31.37V33.872C86.3223 33.74 86.0163 33.674 85.7043 33.674C85.0803 33.674 84.5643 33.884 84.1563 34.304C83.7483 34.712 83.5443 35.228 83.5443 35.852V41H81.2943V31.64H83.5443ZM92.089 31.37C93.145 31.37 94.093 31.706 94.933 32.378V27.5H97.165V41H94.933V40.262C94.093 40.934 93.145 41.27 92.089 41.27C90.805 41.27 89.719 40.802 88.831 39.866C87.967 38.918 87.535 37.736 87.535 36.32C87.535 34.904 87.967 33.728 88.831 32.792C89.707 31.844 90.793 31.37 92.089 31.37ZM94.159 34.394C93.679 33.878 93.085 33.62 92.377 33.62C91.657 33.62 91.057 33.878 90.577 34.394C90.097 34.91 89.857 35.552 89.857 36.32C89.857 37.088 90.097 37.73 90.577 38.246C91.057 38.762 91.657 39.02 92.377 39.02C93.085 39.02 93.679 38.762 94.159 38.246C94.651 37.718 94.897 37.076 94.897 36.32C94.897 35.564 94.651 34.922 94.159 34.394Z" fill="white"/>
<circle cx="69.4235" cy="13.4235" r="8.82672" transform="rotate(30 69.4235 13.4235)" stroke="url(#paint2_linear)" stroke-width="2"/>
<circle cx="87.4701" cy="21.9883" r="4.54581" transform="rotate(30 87.4701 21.9883)" stroke="url(#paint3_linear)" stroke-width="2"/>
<defs>
<linearGradient id="paint0_linear" x1="31.5" y1="7" x2="31.5" y2="70" gradientUnits="userSpaceOnUse">
<stop stop-color="#FE744F"/>
<stop offset="1" stop-color="#EBC605"/>
</linearGradient>
<radialGradient id="paint1_radial" cx="0" cy="0" r="1" gradientUnits="userSpaceOnUse" gradientTransform="translate(-4.3611 8.45) rotate(-60.9454) scale(188.124 287.51)">
<stop stop-color="white" stop-opacity="0"/>
<stop offset="1" stop-color="white"/>
</radialGradient>
<linearGradient id="paint2_linear" x1="69.4235" y1="3.59683" x2="69.4235" y2="23.2503" gradientUnits="userSpaceOnUse">
<stop stop-color="#FE744F"/>
<stop offset="1" stop-color="#EBC605"/>
</linearGradient>
<linearGradient id="paint3_linear" x1="87.4701" y1="16.4424" x2="87.4701" y2="27.5341" gradientUnits="userSpaceOnUse">
<stop stop-color="#FE744F"/>
<stop offset="1" stop-color="#EBC605"/>
</linearGradient>
</defs>
</svg>
