<svg width="34" height="25" viewBox="0 0 34 25" fill="none" xmlns="http://www.w3.org/2000/svg">
<path d="M30 18C30 19.6569 28.6569 21 27 21H24V19H27C27.5523 19 28 18.5523 28 18V7C28 6.44771 27.5523 6 27 6H7C6.44772 6 6 6.44771 6 7V9H4V7C4 5.34315 5.34315 4 7 4H27C28.6569 4 30 5.34315 30 7V18Z" fill="white"/>
<path d="M34 14C34 15.6569 32.6569 17 31 17H28V15H31C31.5523 15 32 14.5523 32 14V3C32 2.44771 31.5523 2 31 2H11C10.4477 2 10 2.44771 10 3V5H8V3C8 1.34315 9.34315 0 11 0H31C32.6569 0 34 1.34315 34 3V14Z" fill="white"/>
<path fill-rule="evenodd" clip-rule="evenodd" d="M26 22C26 23.6569 24.6569 25 23 25H3C1.34315 25 0 23.6569 0 22V11C0 9.34315 1.34315 8 3 8H23C24.6569 8 26 9.34315 26 11V22ZM23 23C23.5523 23 24 22.5523 24 22V11C24 10.4477 23.5523 10 23 10H3C2.44772 10 2 10.4477 2 11V22C2 22.5523 2.44772 23 3 23H23Z" fill="white"/>
<path d="M29 15H25V13H29V15Z" fill="white"/>
<path d="M33 11H29V9H33V11Z" fill="white"/>
<path d="M25 19H1V17H25V19Z" fill="white"/>
</svg>
