<svg width="23" height="23" viewBox="0 0 23 23" fill="none" xmlns="http://www.w3.org/2000/svg">
<path d="M16.2917 0C14.5734 0 13.0161 0.322 11.799 0.928625C10.5829 1.53525 9.58333 2.52329 9.58333 3.83333V7.66667C9.58333 7.79029 9.62454 7.91008 9.64371 8.02604C8.68444 7.78228 7.69807 7.66152 6.70833 7.66667C4.99004 7.66667 3.43275 7.98867 2.21567 8.59529C0.999542 9.20192 0 10.19 0 11.5V19.1667C0 20.4767 0.999542 21.4647 2.21663 22.0714C3.43275 22.678 4.99004 23 6.70833 23C8.42662 23 9.98392 22.678 11.201 22.0714C12.4162 21.4647 13.4167 20.4767 13.4167 19.1667V18.7776C14.3541 19.031 15.3205 19.1618 16.2917 19.1667C18.01 19.1667 19.5672 18.8447 20.7843 18.238C21.9995 17.6314 23 16.6434 23 15.3333V3.83333C23 2.52329 22.0005 1.53525 20.7834 0.928625C19.5682 0.322 18.0109 0 16.2917 0ZM16.2917 1.91667C17.7512 1.91667 19.0507 2.231 19.9151 2.66513C20.7805 3.09925 21.0833 3.55637 21.0833 3.83333C21.0833 4.11125 20.7805 4.56742 19.9151 5.00154C19.0517 5.43567 17.7512 5.75 16.2917 5.75C14.8321 5.75 13.5326 5.43567 12.6682 5.00154C11.8028 4.56742 11.5 4.11029 11.5 3.83333C11.5 3.55542 11.8028 3.09925 12.6682 2.66513C13.5317 2.231 14.8321 1.91667 16.2917 1.91667ZM11.5 6.55883C11.6006 6.61442 11.6945 6.68629 11.8 6.73804C13.0161 7.34467 14.5734 7.66667 16.2917 7.66667C18.01 7.66667 19.5672 7.34467 20.7843 6.73804C20.8888 6.68629 20.9827 6.61442 21.0833 6.55883V7.66667C21.0833 7.94458 20.7805 8.40075 19.9151 8.83488C19.0507 9.269 17.7512 9.58333 16.2917 9.58333C14.8321 9.58333 13.5326 9.269 12.6682 8.83488C11.8028 8.40075 11.5 7.94362 11.5 7.66667V6.55883ZM6.70833 9.58333C8.16787 9.58333 9.46738 9.89767 10.3318 10.3318C11.1972 10.7659 11.5 11.223 11.5 11.5C11.5 11.7779 11.1972 12.2341 10.3318 12.6682C9.46738 13.1023 8.16787 13.4167 6.70833 13.4167C5.24879 13.4167 3.94929 13.1023 3.08487 12.6682C2.2195 12.2341 1.91667 11.777 1.91667 11.5C1.91667 11.2221 2.2195 10.7659 3.08487 10.3318C3.94833 9.89767 5.24879 9.58333 6.70833 9.58333ZM21.0833 10.3922V11.5C21.0833 11.7779 20.7805 12.2341 19.9151 12.6682C19.0507 13.1023 17.7512 13.4167 16.2917 13.4167C15.3154 13.422 14.3447 13.2702 13.4167 12.9672V11.5C13.4167 11.3764 13.3755 11.2566 13.3563 11.1406C14.2475 11.3725 15.2356 11.5 16.2917 11.5C18.01 11.5 19.5672 11.178 20.7843 10.5714C20.8888 10.5196 20.9827 10.4477 21.0833 10.3922V10.3922ZM1.91667 14.2255C2.01729 14.2811 2.11121 14.353 2.21663 14.4047C3.43275 15.0113 4.99004 15.3333 6.70833 15.3333C8.42662 15.3333 9.98392 15.0113 11.201 14.4047C11.3055 14.353 11.3994 14.2811 11.5 14.2255V15.3333C11.5 15.6112 11.1972 16.0674 10.3318 16.5015C9.46738 16.9357 8.16787 17.25 6.70833 17.25C5.24879 17.25 3.94929 16.9357 3.08487 16.5015C2.2195 16.0674 1.91667 15.6103 1.91667 15.3333V14.2255ZM21.0833 14.2255V15.3333C21.0833 15.6112 20.7805 16.0674 19.9151 16.5015C19.0507 16.9357 17.7512 17.25 16.2917 17.25C15.202 17.25 14.2178 17.0967 13.4167 16.8302V14.974C14.2964 15.2059 15.2547 15.3333 16.2917 15.3333C18.01 15.3333 19.5672 15.0113 20.7843 14.4047C20.8888 14.353 20.9827 14.2811 21.0833 14.2255V14.2255ZM1.91667 18.0588C2.01729 18.1144 2.11121 18.1863 2.21663 18.238C3.43275 18.8447 4.99004 19.1667 6.70833 19.1667C8.42662 19.1667 9.98392 18.8447 11.201 18.238C11.3055 18.1863 11.3994 18.1144 11.5 18.0588V19.1667C11.5 19.4446 11.1972 19.9008 10.3318 20.3349C9.46738 20.769 8.16787 21.0833 6.70833 21.0833C5.24879 21.0833 3.94929 20.769 3.08487 20.3349C2.2195 19.9008 1.91667 19.4436 1.91667 19.1667V18.0588Z" fill="#fff"/>
</svg>
