<svg width="35" height="36" viewBox="0 0 35 36" fill="none" xmlns="http://www.w3.org/2000/svg">
<path fill-rule="evenodd" clip-rule="evenodd" d="M31.8376 2.60317L22.7171 20.3641L15.6023 17.3149L14.8144 19.1532L21.9293 22.2024C22.895 22.6163 24.0163 22.2124 24.4962 21.2777L34.2531 2.27744C34.8959 1.02571 33.6167 -0.342433 32.3247 0.214918L6.53593 11.3395C4.97451 12.013 4.9127 14.2043 6.43368 14.9647L11.3445 17.4201L12.2389 15.6313L7.32811 13.1759L31.8376 2.60317Z" fill="url(#paint0_linear)"/>
<path fill-rule="evenodd" clip-rule="evenodd" d="M31.9257 1.18132L33.0742 2.81867L12.8587 16.9988L13.6532 23.3554L17.8851 18.7003L19.365 20.0456L14.4018 25.5051C13.5398 26.4534 11.9625 25.9538 11.8035 24.6822L10.7248 16.0526L31.9257 1.18132Z" fill="url(#paint1_linear)"/>
<path fill-rule="evenodd" clip-rule="evenodd" d="M32.6738 3.23895L15.9347 18.5011L14.9884 24.6521L13.0116 24.3479L13.9579 18.1969C14.0274 17.7453 14.2495 17.331 14.5872 17.0231L31.3262 1.76104L32.6738 3.23895Z" fill="url(#paint2_linear)"/>
<path fill-rule="evenodd" clip-rule="evenodd" d="M9.75257 26.8415C10.1163 27.2571 10.0741 27.8889 9.6585 28.2526L1.6585 35.2526C1.24287 35.6163 0.611104 35.5741 0.247422 35.1585C-0.11626 34.7429 -0.0741428 34.1111 0.341494 33.7474L8.34149 26.7474C8.75713 26.3837 9.38889 26.4259 9.75257 26.8415Z" fill="url(#paint3_linear)"/>
<path fill-rule="evenodd" clip-rule="evenodd" d="M15.6247 28.7191C16.056 29.0641 16.1259 29.6934 15.7809 30.1247L11.7809 35.1247C11.4359 35.556 10.8066 35.6259 10.3753 35.2809C9.94404 34.9359 9.87412 34.3066 10.2191 33.8753L14.2191 28.8753C14.5641 28.444 15.1934 28.3741 15.6247 28.7191Z" fill="url(#paint4_linear)"/>
<path fill-rule="evenodd" clip-rule="evenodd" d="M7.85749 21.9855C8.14164 22.4591 7.98807 23.0733 7.51449 23.3575L2.51449 26.3575C2.04091 26.6416 1.42665 26.4881 1.14251 26.0145C0.858357 25.5409 1.01192 24.9267 1.4855 24.6425L6.4855 21.6425C6.95908 21.3584 7.57334 21.5119 7.85749 21.9855Z" fill="url(#paint5_linear)"/>
<defs>
<linearGradient id="paint0_linear" x1="17.2123" y1="0.0868835" x2="17.2123" y2="35.5" gradientUnits="userSpaceOnUse">
<stop stop-color="#FE744F"/>
<stop offset="1" stop-color="#EBC605"/>
</linearGradient>
<linearGradient id="paint1_linear" x1="17.2123" y1="0.0868835" x2="17.2123" y2="35.5" gradientUnits="userSpaceOnUse">
<stop stop-color="#FE744F"/>
<stop offset="1" stop-color="#EBC605"/>
</linearGradient>
<linearGradient id="paint2_linear" x1="17.2123" y1="0.0868835" x2="17.2123" y2="35.5" gradientUnits="userSpaceOnUse">
<stop stop-color="#FE744F"/>
<stop offset="1" stop-color="#EBC605"/>
</linearGradient>
<linearGradient id="paint3_linear" x1="17.2123" y1="0.0868835" x2="17.2123" y2="35.5" gradientUnits="userSpaceOnUse">
<stop stop-color="#FE744F"/>
<stop offset="1" stop-color="#EBC605"/>
</linearGradient>
<linearGradient id="paint4_linear" x1="17.2123" y1="0.0868835" x2="17.2123" y2="35.5" gradientUnits="userSpaceOnUse">
<stop stop-color="#FE744F"/>
<stop offset="1" stop-color="#EBC605"/>
</linearGradient>
<linearGradient id="paint5_linear" x1="17.2123" y1="0.0868835" x2="17.2123" y2="35.5" gradientUnits="userSpaceOnUse">
<stop stop-color="#FE744F"/>
<stop offset="1" stop-color="#EBC605"/>
</linearGradient>
</defs>
</svg>
