<svg width="40" height="40" viewBox="0 0 40 40" fill="none" xmlns="http://www.w3.org/2000/svg">
<path fill-rule="evenodd" clip-rule="evenodd" d="M19.5 16.5172C22.3829 16.5172 24.72 14.2246 24.72 11.3965C24.72 8.56846 22.3829 6.27585 19.5 6.27585C16.6171 6.27585 14.28 8.56846 14.28 11.3965C14.28 14.2246 16.6171 16.5172 19.5 16.5172ZM27.0399 11.3965C27.0399 15.4815 23.6642 18.793 19.5 18.793C15.3358 18.793 11.9601 15.4815 11.9601 11.3965C11.9601 7.31154 15.3358 4 19.5 4C23.6642 4 27.0399 7.31154 27.0399 11.3965Z" fill="url(#paint0_linear)"/>
<path fill-rule="evenodd" clip-rule="evenodd" d="M8.72587 24.6047L8.7287 24.6849L7.31144 36.0007C7.23332 36.6245 6.65452 37.068 6.01865 36.9914C5.38279 36.9147 4.93065 36.347 5.00878 35.7232L6.40614 24.5663C6.40628 24.5553 6.40648 24.5435 6.40677 24.531C6.40846 24.4569 6.41304 24.3572 6.42391 24.2356C6.44561 23.9929 6.49259 23.6602 6.59294 23.2676C6.79386 22.4814 7.2107 21.4483 8.06926 20.4228C9.81679 18.3356 13.1828 16.5172 19.5 16.5172C25.8172 16.5172 29.1832 18.3356 30.9307 20.4228C31.7893 21.4483 32.2061 22.4814 32.4071 23.2676C32.5074 23.6602 32.5544 23.9929 32.5761 24.2356C32.587 24.3572 32.5915 24.4569 32.5932 24.531C32.5935 24.5435 32.5937 24.5553 32.5939 24.5663L33.9912 35.7232C34.0693 36.347 33.6172 36.9147 32.9813 36.9914C32.3455 37.068 31.7667 36.6245 31.6886 36.0007L30.2713 24.6849L30.2741 24.6047C30.2741 24.6008 30.2741 24.5932 30.2738 24.5821C30.2732 24.554 30.2712 24.5037 30.265 24.4344C30.2526 24.2955 30.2236 24.0828 30.1567 23.8211C30.0232 23.2985 29.7403 22.5867 29.1379 21.8673C27.9636 20.4646 25.3627 18.793 19.5 18.793C13.6373 18.793 11.0364 20.4646 9.86207 21.8673C9.25968 22.5867 8.97681 23.2985 8.84327 23.8211C8.77638 24.0828 8.74744 24.2955 8.73502 24.4344C8.72883 24.5037 8.72681 24.554 8.72616 24.5821C8.72591 24.5933 8.72587 24.6009 8.72587 24.6047Z" fill="url(#paint1_linear)"/>
<path fill-rule="evenodd" clip-rule="evenodd" d="M20.08 18.793H18.92L18.92 19.931H20.08V18.793ZM18.92 16.5172C17.6387 16.5172 16.6 17.5361 16.6 18.793V19.931C16.6 21.1879 17.6387 22.2068 18.92 22.2068H20.08C21.3613 22.2068 22.4 21.1879 22.4 19.931V18.793C22.4 17.5361 21.3613 16.5172 20.08 16.5172H18.92Z" fill="url(#paint2_linear)"/>
<path fill-rule="evenodd" clip-rule="evenodd" d="M19.7122 22.2068H19.2878L19.0672 23.1763C18.9866 23.5308 18.9641 23.8956 19.0006 24.257L19.5 29.1949L19.9994 24.257C20.0359 23.8956 20.0134 23.5308 19.9328 23.1763L19.7122 22.2068ZM19.2878 19.931C18.2013 19.931 17.2603 20.6707 17.0236 21.711L16.803 22.6805C16.6685 23.2713 16.6311 23.8793 16.692 24.4817L17.3841 31.3254C17.4127 31.6084 17.5484 31.8707 17.7643 32.0605L18.7259 32.9057C19.1665 33.293 19.8335 33.293 20.2741 32.9057L21.2357 32.0605C21.4516 31.8707 21.5873 31.6084 21.6159 31.3254L22.308 24.4817C22.3689 23.8793 22.3315 23.2713 22.197 22.6805L21.9764 21.711C21.7397 20.6707 20.7987 19.931 19.7122 19.931H19.2878Z" fill="url(#paint3_linear)"/>
<defs>
<linearGradient id="paint0_linear" x1="19.5" y1="4" x2="19.5" y2="37" gradientUnits="userSpaceOnUse">
<stop stop-color="#FE744F"/>
<stop offset="1" stop-color="#EBC605"/>
</linearGradient>
<linearGradient id="paint1_linear" x1="19.5" y1="4" x2="19.5" y2="37" gradientUnits="userSpaceOnUse">
<stop stop-color="#FE744F"/>
<stop offset="1" stop-color="#EBC605"/>
</linearGradient>
<linearGradient id="paint2_linear" x1="19.5" y1="4" x2="19.5" y2="37" gradientUnits="userSpaceOnUse">
<stop stop-color="#FE744F"/>
<stop offset="1" stop-color="#EBC605"/>
</linearGradient>
<linearGradient id="paint3_linear" x1="19.5" y1="4" x2="19.5" y2="37" gradientUnits="userSpaceOnUse">
<stop stop-color="#FE744F"/>
<stop offset="1" stop-color="#EBC605"/>
</linearGradient>
</defs>
</svg>
