<svg width="41" height="40" viewBox="0 0 41 40" fill="none" xmlns="http://www.w3.org/2000/svg">
<path fill-rule="evenodd" clip-rule="evenodd" d="M26.7071 14.2929C27.0976 14.6834 27.0976 15.3166 26.7071 15.7071L15.7071 26.7071C15.3166 27.0976 14.6834 27.0976 14.2929 26.7071C13.9024 26.3166 13.9024 25.6834 14.2929 25.2929L25.2929 14.2929C25.6834 13.9024 26.3166 13.9024 26.7071 14.2929Z" fill="url(#paint0_linear)"/>
<path fill-rule="evenodd" clip-rule="evenodd" d="M25 26C25.5523 26 26 25.5523 26 25C26 24.4477 25.5523 24 25 24C24.4477 24 24 24.4477 24 25C24 25.5523 24.4477 26 25 26ZM25 28C26.6569 28 28 26.6569 28 25C28 23.3431 26.6569 22 25 22C23.3431 22 22 23.3431 22 25C22 26.6569 23.3431 28 25 28Z" fill="url(#paint1_linear)"/>
<path fill-rule="evenodd" clip-rule="evenodd" d="M16 17C16.5523 17 17 16.5523 17 16C17 15.4477 16.5523 15 16 15C15.4477 15 15 15.4477 15 16C15 16.5523 15.4477 17 16 17ZM16 19C17.6569 19 19 17.6569 19 16C19 14.3431 17.6569 13 16 13C14.3431 13 13 14.3431 13 16C13 17.6569 14.3431 19 16 19Z" fill="url(#paint2_linear)"/>
<path fill-rule="evenodd" clip-rule="evenodd" d="M22.2516 3.40006C21.8299 1.53331 19.1701 1.53331 18.7484 3.40006C17.8664 7.30485 13.3854 9.16092 10.0006 7.02351C8.38247 6.00169 6.50169 7.88247 7.52351 9.50062C9.66092 12.8854 7.80485 17.3664 3.90006 18.2484C2.03331 18.6701 2.03331 21.3299 3.90006 21.7516C7.80485 22.6336 9.66092 27.1146 7.52351 30.4994C6.50169 32.1175 8.38247 33.9983 10.0006 32.9765C13.3854 30.8391 17.8664 32.6951 18.7484 36.5999C19.1701 38.4667 21.8299 38.4667 22.2516 36.5999C23.1336 32.6951 27.6146 30.8391 30.9994 32.9765C32.6175 33.9983 34.4983 32.1175 33.4765 30.4994C31.3391 27.1146 33.1951 22.6336 37.0999 21.7516C38.9667 21.3299 38.9667 18.6701 37.0999 18.2484C33.1951 17.3664 31.3391 12.8854 33.4765 9.50062C34.4983 7.88247 32.6175 6.00169 30.9994 7.02351C27.6146 9.16092 23.1336 7.30485 22.2516 3.40006ZM16.7976 2.95939C17.6889 -0.986464 23.3111 -0.986464 24.2024 2.95939C24.7801 5.51671 27.7148 6.73228 29.9315 5.33246C33.3519 3.17256 37.3274 7.14809 35.1675 10.5685C33.7677 12.7852 34.9833 15.7199 37.5406 16.2976C41.4865 17.1889 41.4865 22.8111 37.5406 23.7024C34.9833 24.2801 33.7677 27.2148 35.1675 29.4315C37.3274 32.8519 33.3519 36.8274 29.9315 34.6675C27.7148 33.2677 24.7801 34.4833 24.2024 37.0406C23.3111 40.9865 17.6889 40.9865 16.7976 37.0406C16.2199 34.4833 13.2852 33.2677 11.0685 34.6675C7.64809 36.8274 3.67256 32.8519 5.83245 29.4315C7.23228 27.2148 6.01671 24.2801 3.45939 23.7024C-0.486464 22.8111 -0.486464 17.1889 3.45939 16.2976C6.01671 15.7199 7.23228 12.7852 5.83245 10.5685C3.67256 7.14809 7.64809 3.17256 11.0685 5.33246C13.2852 6.73228 16.2199 5.51671 16.7976 2.95939Z" fill="url(#paint3_linear)"/>
<defs>
<linearGradient id="paint0_linear" x1="20.5" y1="0" x2="20.5" y2="40" gradientUnits="userSpaceOnUse">
<stop stop-color="#FE744F"/>
<stop offset="1" stop-color="#EBC605"/>
</linearGradient>
<linearGradient id="paint1_linear" x1="20.5" y1="0" x2="20.5" y2="40" gradientUnits="userSpaceOnUse">
<stop stop-color="#FE744F"/>
<stop offset="1" stop-color="#EBC605"/>
</linearGradient>
<linearGradient id="paint2_linear" x1="20.5" y1="0" x2="20.5" y2="40" gradientUnits="userSpaceOnUse">
<stop stop-color="#FE744F"/>
<stop offset="1" stop-color="#EBC605"/>
</linearGradient>
<linearGradient id="paint3_linear" x1="20.5" y1="0" x2="20.5" y2="40" gradientUnits="userSpaceOnUse">
<stop stop-color="#FE744F"/>
<stop offset="1" stop-color="#EBC605"/>
</linearGradient>
</defs>
</svg>
