<svg width="24" height="21" viewBox="0 0 24 21" fill="none" xmlns="http://www.w3.org/2000/svg">
<path d="M23 1.12498C22.0424 1.8286 20.9821 2.36676 19.86 2.71873C19.2577 1.99738 18.4573 1.48611 17.567 1.25407C16.6767 1.02202 15.7395 1.08039 14.8821 1.42128C14.0247 1.76218 13.2884 2.36914 12.773 3.1601C12.2575 3.95105 11.9877 4.88783 12 5.84373V6.88539C10.2426 6.93286 8.50127 6.52687 6.93101 5.70357C5.36074 4.88027 4.01032 3.66522 3 2.16664C3 2.16664 -1 11.5416 8 15.7083C5.94053 17.1645 3.48716 17.8947 1 17.7916C10 23 21 17.7916 21 5.81248C20.9991 5.52232 20.9723 5.23289 20.92 4.94789C21.9406 3.89945 22.6608 2.57572 23 1.12498V1.12498Z" stroke="white" stroke-width="2" stroke-linecap="round" stroke-linejoin="round"/>
</svg>
