<svg width="300" height="78" viewBox="0 0 300 78" fill="none" xmlns="http://www.w3.org/2000/svg">
<path d="M272.6 26.7026C271.985 25.3138 270.015 25.3138 269.4 26.7026L264.87 36.9345C264.253 38.3288 262.936 39.2855 261.419 39.4417L250.288 40.5878C248.778 40.7434 248.169 42.6177 249.299 43.6316L257.631 51.1014C258.766 52.1193 259.269 53.6674 258.949 55.1582L256.599 66.0984C256.28 67.5833 257.875 68.7417 259.188 67.9796L268.867 62.3642C270.186 61.599 271.814 61.599 273.133 62.3642L282.811 67.9796C284.125 68.7417 285.72 67.5833 285.401 66.0984L283.051 55.1582C282.731 53.6674 283.234 52.1193 284.369 51.1014L292.701 43.6316C293.831 42.6177 293.222 40.7434 291.712 40.5878L280.581 39.4417C279.064 39.2855 277.747 38.3288 277.13 36.9345L272.6 26.7026Z" stroke="url(#paint0_linear)" stroke-width="2.5"/>
<path d="M214.6 26.7026C213.985 25.3138 212.015 25.3138 211.4 26.7026L206.87 36.9345C206.253 38.3288 204.936 39.2855 203.419 39.4417L192.288 40.5878C190.778 40.7434 190.169 42.6177 191.299 43.6316L199.631 51.1014C200.766 52.1193 201.269 53.6674 200.949 55.1582L198.599 66.0984C198.28 67.5833 199.875 68.7417 201.188 67.9796L210.867 62.3642C212.186 61.599 213.814 61.599 215.133 62.3642L224.811 67.9796C226.125 68.7417 227.72 67.5833 227.401 66.0984L225.051 55.1582C224.731 53.6674 225.234 52.1193 226.369 51.1014L234.701 43.6316C235.831 42.6177 235.222 40.7434 233.712 40.5878L222.581 39.4417C221.064 39.2855 219.747 38.3288 219.13 36.9345L214.6 26.7026Z" stroke="url(#paint1_linear)" stroke-width="2.5"/>
<path d="M156.6 16.7026C155.985 15.3138 154.015 15.3138 153.4 16.7026L148.87 26.9345C148.253 28.3288 146.936 29.2855 145.419 29.4417L134.288 30.5878C132.778 30.7434 132.169 32.6177 133.299 33.6316L141.631 41.1014C142.766 42.1193 143.269 43.6674 142.949 45.1582L140.599 56.0984C140.28 57.5833 141.875 58.7417 143.188 57.9796L152.867 52.3642C154.186 51.599 155.814 51.599 157.133 52.3642L166.811 57.9796C168.125 58.7417 169.72 57.5833 169.401 56.0984L167.051 45.1582C166.731 43.6674 167.234 42.1193 168.369 41.1014L176.701 33.6316C177.831 32.6177 177.222 30.7434 175.712 30.5878L164.581 29.4417C163.064 29.2855 161.747 28.3288 161.13 26.9345L156.6 16.7026Z" stroke="url(#paint2_linear)" stroke-width="2.5"/>
<path d="M98.6002 6.70259C97.9854 5.31379 96.0146 5.3138 95.3998 6.70258L90.8702 16.9345C90.2529 18.3288 88.936 19.2855 87.4192 19.4417L76.2884 20.5878C74.7776 20.7434 74.1686 22.6177 75.2994 23.6316L83.6308 31.1014C84.7661 32.1193 85.2691 33.6674 84.9489 35.1582L82.5993 46.0984C82.2804 47.5833 83.8748 48.7417 85.1885 47.9796L94.8672 42.3642C96.1861 41.599 97.8139 41.599 99.1328 42.3642L108.811 47.9796C110.125 48.7417 111.72 47.5833 111.401 46.0984L109.051 35.1582C108.731 33.6674 109.234 32.1193 110.369 31.1014L118.701 23.6316C119.831 22.6177 119.222 20.7434 117.712 20.5878L106.581 19.4417C105.064 19.2855 103.747 18.3288 103.13 16.9345L98.6002 6.70259Z" stroke="url(#paint3_linear)" stroke-width="2.5"/>
<path d="M30.6002 16.7026C29.9854 15.3138 28.0146 15.3138 27.3998 16.7026L22.8702 26.9345C22.2529 28.3288 20.936 29.2855 19.4192 29.4417L8.28839 30.5878C6.77758 30.7434 6.16858 32.6177 7.2994 33.6316L15.6308 41.1014C16.7661 42.1193 17.2691 43.6674 16.9489 45.1582L14.5993 56.0984C14.2804 57.5833 15.8748 58.7417 17.1885 57.9796L26.8672 52.3642C28.1861 51.599 29.8139 51.599 31.1328 52.3642L40.8115 57.9796C42.1252 58.7417 43.7196 57.5833 43.4007 56.0984L41.0511 45.1582C40.7309 43.6674 41.2339 42.1193 42.3692 41.1014L50.7006 33.6316C51.8314 32.6177 51.2224 30.7434 49.7116 30.5878L38.5808 29.4417C37.064 29.2855 35.7471 28.3288 35.1298 26.9345L30.6002 16.7026Z" stroke="url(#paint4_linear)" stroke-width="2.5"/>
<defs>
<linearGradient id="paint0_linear" x1="271" y1="20" x2="271" y2="78" gradientUnits="userSpaceOnUse">
<stop stop-color="#FE744F"/>
<stop offset="1" stop-color="#EBC605"/>
</linearGradient>
<linearGradient id="paint1_linear" x1="213" y1="20" x2="213" y2="78" gradientUnits="userSpaceOnUse">
<stop stop-color="#FE744F"/>
<stop offset="1" stop-color="#EBC605"/>
</linearGradient>
<linearGradient id="paint2_linear" x1="155" y1="10" x2="155" y2="68" gradientUnits="userSpaceOnUse">
<stop stop-color="#FE744F"/>
<stop offset="1" stop-color="#EBC605"/>
</linearGradient>
<linearGradient id="paint3_linear" x1="97" y1="0" x2="97" y2="58" gradientUnits="userSpaceOnUse">
<stop stop-color="#FE744F"/>
<stop offset="1" stop-color="#EBC605"/>
</linearGradient>
<linearGradient id="paint4_linear" x1="29" y1="10" x2="29" y2="68" gradientUnits="userSpaceOnUse">
<stop stop-color="#FE744F"/>
<stop offset="1" stop-color="#EBC605"/>
</linearGradient>
</defs>
</svg>
