<svg width="23" height="23" viewBox="0 0 23 23" fill="none" xmlns="http://www.w3.org/2000/svg">
<path d="M17.2291 5.77075H17.2391M6.29165 1.08325H16.7083C19.5848 1.08325 21.9166 3.4151 21.9166 6.29159V16.7083C21.9166 19.5847 19.5848 21.9166 16.7083 21.9166H6.29165C3.41516 21.9166 1.08331 19.5847 1.08331 16.7083V6.29159C1.08331 3.4151 3.41516 1.08325 6.29165 1.08325ZM15.6667 10.8437C15.7952 11.7106 15.6471 12.596 15.2435 13.3739C14.8398 14.1518 14.2012 14.7827 13.4183 15.1767C12.6355 15.5707 11.7484 15.7078 10.8831 15.5686C10.0178 15.4294 9.21849 15.0209 8.59878 14.4011C7.97907 13.7814 7.57054 12.9821 7.43131 12.1168C7.29207 11.2516 7.42922 10.3644 7.82324 9.58157C8.21726 8.79874 8.8481 8.16008 9.62601 7.75643C10.4039 7.35279 11.2893 7.20471 12.1562 7.33327C13.0405 7.4644 13.8592 7.87646 14.4913 8.50859C15.1235 9.14071 15.5355 9.95939 15.6667 10.8437Z" stroke="white" stroke-width="2" stroke-linecap="round" stroke-linejoin="round"/>
</svg>
