<svg width="19" height="21" viewBox="0 0 19 21" fill="none" xmlns="http://www.w3.org/2000/svg">
<path fill-rule="evenodd" clip-rule="evenodd" d="M9.5 9.5C11.433 9.5 13 7.933 13 6C13 4.067 11.433 2.5 9.5 2.5C7.567 2.5 6 4.067 6 6C6 7.933 7.567 9.5 9.5 9.5ZM9.5 11.5C12.5376 11.5 15 9.03757 15 6C15 2.96243 12.5376 0.5 9.5 0.5C6.46243 0.5 4 2.96243 4 6C4 9.03757 6.46243 11.5 9.5 11.5Z" fill="#fff"/>
<path fill-rule="evenodd" clip-rule="evenodd" d="M15.2154 17.1582C16.6309 16.3388 17 15.5045 17 15C17 14.4955 16.6309 13.6612 15.2154 12.8418C13.8518 12.0523 11.8354 11.5 9.5 11.5C7.16456 11.5 5.14823 12.0523 3.78456 12.8418C2.36912 13.6612 2 14.4955 2 15C2 15.5045 2.36912 16.3388 3.78456 17.1582C5.14823 17.9477 7.16456 18.5 9.5 18.5C11.8354 18.5 13.8518 17.9477 15.2154 17.1582ZM9.5 20.5C14.7467 20.5 19 18.0376 19 15C19 11.9624 14.7467 9.5 9.5 9.5C4.25329 9.5 0 11.9624 0 15C0 18.0376 4.25329 20.5 9.5 20.5Z" fill="#fff"/>
</svg>
